# xmcd CD database file
#
# Track frame offsets:
#	187
#	15205
#	34075
#	54707
#	68550
#	79007
#	95930
#	112042
#	134555
#	145965
#	174822
#	187695
#	217765
#
# Disc length: 3118 seconds
#
# Revision: 1
# Processed by: cddbd v1.5.1PL0 Copyright (c) Steve Scherf et al.
# Submitted via: CDex 1.50
#
DISCID=a80c2c0d
DTITLE=16TONS - SKATERS WALTZ
DYEAR=1992
DGENRE=Rock
TTITLE0=VERTICAL DRIVE (Instrumental)
TTITLE1=BIRD '93
TTITLE2=SURFIN' COASTER
TTITLE3=HEY, THAT'S NO WAY TO SAY GOODBYE
TTITLE4=ATTACK OF THE MONSTER PANIC HEAD (Instrumental)
TTITLE5=CAPTAIN FROG
TTITLE6=ALPHA CHAINSAW
TTITLE7=MISSING LINK
TTITLE8=FLY SLIDE (Instrumental)
TTITLE9=SMOKE SURFLAND
TTITLE10=NORTH BRIDGE
TTITLE11=SAYONARA CHARLIE
TTITLE12=PIPES OF BOSCH (Instrumental)
EXTD=YEAR: 1992/12
EXTT0=
EXTT1=
EXTT2=
EXTT3=
EXTT4=
EXTT5=
EXTT6=
EXTT7=
EXTT8=
EXTT9=
EXTT10=
EXTT11=
EXTT12=
PLAYORDER=
